Coordinates
version=1
nRows=32
nColumns=12
inDegrees=yes

Units are S.I. units (second, meters, Newtons, ...)
Angles are in degrees

endheader
time	SC_y	SC_z	SC_x	AC_y	AC_z	AC_x	GH_y	GH_z	GH_yy	EL_x	PS_y
       0.0              -28.41          38.18          69.37          41.04         -5.909          3.764         -77.01          36.76          120.8          99.24          129.3
   0.04572              -28.41          38.18          69.36          41.04         -5.908          3.764          -77.0          36.75          120.8          99.25          129.4
   0.09145              -28.41          38.18          69.36          41.04         -5.906          3.764         -76.99          36.75          120.8          99.25          129.4
    0.1372              -28.42          38.18          69.35          41.04         -5.904          3.765         -76.98          36.75          120.8          99.25          129.4
    0.1829              -28.42          38.18          69.35          41.04         -5.901          3.765         -76.97          36.74          120.8          99.25          129.4
    0.2286              -28.42          38.18          69.34          41.04         -5.899          3.765         -76.97          36.74          120.8          99.25          129.4
    0.2743              -28.43          38.18          69.34          41.04         -5.896          3.766         -76.96          36.73          120.9          99.25          129.4
    0.3201              -28.43          38.18          69.33          41.04         -5.894          3.766         -76.95          36.73          120.9          99.26          129.4
    0.3658              -28.44          38.18          69.32          41.04         -5.891          3.766         -76.93          36.72          120.9          99.26          129.4
    0.4115              -28.44          38.18          69.31          41.04         -5.888          3.767         -76.92          36.71          120.9          99.26          129.4
    0.4572              -28.45          38.18           69.3          41.03         -5.884          3.767         -76.91          36.71          120.9          99.26          129.4
     0.503              -28.45          38.18          69.29          41.03         -5.881          3.768         -76.89           36.7          120.9          99.27          129.4
    0.5487              -28.46          38.18          69.28          41.03         -5.877          3.768         -76.88          36.69          120.9          99.27          129.4
    0.5944              -28.46          38.18          69.27          41.03         -5.873          3.769         -76.86          36.68          121.0          99.27          129.4
    0.6401              -28.47          38.18          69.26          41.03         -5.868           3.77         -76.85          36.67          121.0          99.27          129.4
    0.6858              -28.48          38.17          69.25          41.03         -5.863           3.77         -76.83          36.67          121.0          99.28          129.4
    0.7316              -28.49          38.17          69.23          41.03         -5.858          3.771         -76.81          36.65          121.0          99.28          129.4
    0.7773               -28.5          38.17          69.22          41.03         -5.852          3.772         -76.78          36.64          121.1          99.29          129.4
     0.823              -28.51          38.17           69.2          41.02         -5.846          3.773         -76.76          36.63          121.1          99.29          129.4
    0.8687              -28.52          38.17          69.18          41.02         -5.839          3.774         -76.73          36.62          121.1           99.3          129.4
    0.9145              -28.53          38.17          69.16          41.02         -5.832          3.775          -76.7           36.6          121.1           99.3          129.4
    0.9602              -28.54          38.17          69.14          41.02         -5.823          3.776         -76.67          36.58          121.2          99.31          129.5
     1.006              -28.56          38.17          69.12          41.02         -5.814          3.777         -76.63          36.56          121.2          99.31          129.5
     1.052              -28.57          38.17          69.09          41.01         -5.804          3.778         -76.59          36.54          121.3          99.32          129.5
     1.097              -28.59          38.17          69.06          41.01         -5.792           3.78         -76.55          36.52          121.3          99.33          129.5
     1.143              -28.61          38.16          69.03          41.01          -5.78          3.782          -76.5          36.49          121.4          99.34          129.5
     1.189              -28.63          38.16          68.99           41.0         -5.765          3.784         -76.44          36.47          121.5          99.35          129.5
     1.235              -28.66          38.16          68.95           41.0         -5.749          3.786         -76.38          36.43          121.5          99.36          129.6
      1.28              -28.69          38.16           68.9          40.99         -5.731          3.788         -76.31           36.4          121.6          99.38          129.6
     1.326              -28.72          38.16          68.85          40.99         -5.711          3.791         -76.23          36.36          121.7          99.39          129.6
     1.372              -28.76          38.15          68.79          40.98         -5.687          3.794         -76.14          36.31          121.8          99.41          129.6
     1.417               -28.8          38.15          68.72          40.98          -5.66          3.798         -76.03          36.25          121.9          99.43          129.7
